<?xml version="1.0" encoding="utf-8"?>
<!-- Generator: Adobe Illustrator 12.0.1, SVG Export Plug-In . SVG Version: 6.00 Build 51448)  -->
<!DOCTYPE svg PUBLIC "-//W3C//DTD SVG 1.1//EN" "http://www.w3.org/Graphics/SVG/1.1/DTD/svg11.dtd" [
	<!ENTITY ns_svg "http://www.w3.org/2000/svg">
	<!ENTITY ns_xlink "http://www.w3.org/1999/xlink">
	<!ENTITY st0 "fill:none;">
]>
<svg  version="1.1" id="Layer_1" xmlns="&ns_svg;" xmlns:xlink="&ns_xlink;" width="276" height="59" viewBox="0 0 276 59"
	 style="overflow:visible;enable-background:new 0 0 276 59;" xml:space="preserve">
<path d="M18.059,6.798L14.228,17.89c0,0-0.401,1.203-0.649,1.948c-0.211-0.657-0.564-1.752-0.564-1.752L9.244,6.798H5.758v16.15
	h2.416c0,0,0-10.389,0-12.395c0.651,1.919,4.205,12.395,4.205,12.395h2.165c0,0,3.595-10.332,4.246-12.204
	c0,1.961,0,12.204,0,12.204h2.416V6.798H18.059z"/>
<path d="M24.324,6.798v2.619h2.338V6.798H24.324z M24.324,11.142v11.807h2.338V11.142H24.324z"/>
<path d="M31.577,11.608L31.577,11.608c-0.869,0.481-1.525,1.211-1.95,2.17c-0.417,0.942-0.629,2.056-0.629,3.31
	c0,1.945,0.497,3.465,1.477,4.518c0.984,1.057,2.301,1.592,3.912,1.592c1.289,0,2.394-0.389,3.284-1.156
	c0.889-0.767,1.448-1.838,1.663-3.185l0.032-0.201l-2.306-0.321l-0.028,0.198c-0.129,0.915-0.433,1.596-0.903,2.027
	c-0.475,0.434-1.052,0.645-1.766,0.645c-0.892,0-1.594-0.316-2.146-0.968c-0.553-0.652-0.833-1.729-0.833-3.202
	c0-1.451,0.291-2.518,0.864-3.172c0.575-0.657,1.302-0.977,2.226-0.977c0.601,0,1.099,0.173,1.521,0.53
	c0.419,0.355,0.718,0.897,0.886,1.613l0.042,0.181l2.263-0.358l-0.04-0.203c-0.23-1.19-0.764-2.124-1.586-2.777
	c-0.821-0.649-1.886-0.979-3.164-0.979C33.385,10.892,32.437,11.133,31.577,11.608z"/>
<path d="M44.022,11.313L44.022,11.313c-0.292,0.201-0.598,0.593-0.915,1.082c0-0.503,0-1.253,0-1.253h-2.15v11.807h2.338v-6.165
	c0-0.792,0.105-1.53,0.313-2.194c0.129-0.407,0.348-0.729,0.648-0.957c0.303-0.229,0.635-0.34,1.015-0.34
	c0.434,0,0.875,0.127,1.314,0.379l0.204,0.117l0.816-2.164l-0.141-0.086c-0.702-0.429-1.405-0.647-2.09-0.647
	C44.885,10.892,44.43,11.034,44.022,11.313z"/>
<path d="M49.823,12.206L49.823,12.206c-1.215,1.051-1.831,2.68-1.831,4.839c0,1.968,0.516,3.501,1.533,4.559
	c1.02,1.058,2.371,1.595,4.016,1.595c1.025,0,1.984-0.243,2.852-0.722c0.872-0.482,1.546-1.168,2.003-2.04
	c0.454-0.866,0.684-2.061,0.684-3.553c0-1.854-0.521-3.332-1.55-4.392c-1.031-1.062-2.373-1.6-3.989-1.6
	C52.088,10.892,50.837,11.334,49.823,12.206z M50.376,17.039c0-1.401,0.305-2.457,0.906-3.138c0.604-0.683,1.342-1.015,2.258-1.015
	c0.901,0,1.634,0.334,2.242,1.021c0.605,0.685,0.912,1.717,0.912,3.068c0,1.438-0.305,2.516-0.907,3.204
	c-0.604,0.69-1.339,1.025-2.247,1.025c-0.916,0-1.654-0.333-2.258-1.02C50.681,19.499,50.376,18.44,50.376,17.039z"/>
<path d="M63.561,11.13L63.561,11.13c-0.541,0.161-0.975,0.361-1.291,0.594c-0.422,0.301-0.762,0.688-1.008,1.146
	c-0.247,0.46-0.373,0.966-0.373,1.505c0,0.593,0.153,1.143,0.455,1.634c0.302,0.493,0.751,0.883,1.333,1.16
	c0.562,0.268,1.538,0.576,2.983,0.942c1.276,0.32,1.748,0.518,1.919,0.627c0.324,0.211,0.482,0.493,0.482,0.859
	c0,0.426-0.188,0.791-0.575,1.114c-0.392,0.327-1.016,0.493-1.855,0.493c-0.832,0-1.483-0.189-1.937-0.562
	c-0.45-0.371-0.729-0.917-0.829-1.625l-0.028-0.201l-2.309,0.36l0.036,0.201c0.223,1.251,0.748,2.212,1.562,2.856
	c0.811,0.641,1.994,0.965,3.517,0.965c0.918,0,1.756-0.163,2.489-0.484c0.742-0.324,1.319-0.793,1.716-1.393
	c0.396-0.6,0.598-1.249,0.598-1.929c0-0.697-0.168-1.292-0.5-1.767c-0.33-0.473-0.788-0.837-1.362-1.083
	c-0.548-0.235-1.519-0.54-2.887-0.906l-1.688-0.486c-0.294-0.118-0.515-0.27-0.65-0.447c-0.132-0.167-0.195-0.347-0.195-0.553
	c0-0.33,0.16-0.614,0.49-0.868c0.342-0.263,0.939-0.396,1.775-0.396c0.7,0,1.244,0.152,1.617,0.452
	c0.374,0.3,0.593,0.709,0.673,1.252l0.029,0.197l2.291-0.322l-0.034-0.202c-0.126-0.766-0.363-1.39-0.702-1.853
	c-0.344-0.471-0.878-0.847-1.588-1.118c-0.696-0.265-1.513-0.4-2.428-0.4C64.678,10.892,64.097,10.972,63.561,11.13z"/>
<path d="M73.85,12.206L73.85,12.206c-1.215,1.051-1.831,2.68-1.831,4.839c0,1.968,0.516,3.501,1.533,4.559
	c1.02,1.058,2.371,1.595,4.016,1.595c1.025,0,1.984-0.243,2.852-0.722c0.872-0.482,1.546-1.168,2.003-2.04
	c0.454-0.866,0.684-2.061,0.684-3.553c0-1.854-0.521-3.332-1.55-4.392c-1.031-1.062-2.373-1.6-3.989-1.6
	C76.115,10.892,74.864,11.334,73.85,12.206z M74.404,17.039c0-1.401,0.305-2.457,0.906-3.138c0.604-0.683,1.342-1.015,2.258-1.015
	c0.901,0,1.634,0.334,2.242,1.021c0.605,0.685,0.912,1.717,0.912,3.068c0,1.438-0.305,2.516-0.907,3.204
	c-0.604,0.69-1.339,1.025-2.247,1.025c-0.916,0-1.654-0.333-2.258-1.02C74.708,19.499,74.404,18.44,74.404,17.039z"/>
<path d="M92.237,13.042c0,0.376,0,6.368,0,6.368c0,1.2,0.083,1.974,0.252,2.365c0.174,0.4,0.477,0.726,0.899,0.97
	c0.416,0.239,0.998,0.36,1.73,0.36l1.708-0.202l-0.052-0.204l-0.311-1.89l-1.006,0.083l-0.548-0.11c0,0-0.25-0.283-0.25-0.283
	c-0.032-0.075-0.085-0.301-0.085-0.986c0,0,0-6.094,0-6.471c0.321,0,1.922,0,1.922,0v-1.9c0,0-1.601,0-1.922,0
	c0-0.361,0-4.138,0-4.138l-2.338,1.4c0,0,0,2.393,0,2.738H88.15c0-0.263,0-0.855,0-0.855c0-0.632,0.104-1.06,0.309-1.272
	c0.203-0.21,0.574-0.316,1.103-0.316L90.85,8.82l0.048-0.18l0.326-1.891l-2.038-0.216c-0.881,0-1.581,0.169-2.082,0.501
	c-0.502,0.334-0.859,0.777-1.059,1.315c-0.146,0.4-0.217,0.981-0.217,1.779c0,0,0,0.735,0,1.014c-0.312,0-1.703,0-1.703,0v1.9
	c0,0,1.392,0,1.703,0c0,0.384,0,9.906,0,9.906h2.338c0,0,0-9.522,0-9.906H92.237z"/>
<path d="M17.969,22.948h9.454l3.417,17.962l4.982-17.962h9.375l5.01,17.981l3.419-17.981h9.405L55.93,55.167h-9.763l-5.651-20.285
	L34.89,55.167h-9.757L17.969,22.948z"/>
<path d="M65.051,22.948h8.938v6.094h-8.938V22.948z M65.051,31.823h8.938v23.344h-8.938V31.823z"/>
<path d="M77.217,31.823h8.323v3.794c1.246-1.552,2.507-2.66,3.783-3.326c1.275-0.666,2.83-0.999,4.663-0.999
	c2.478,0,4.417,0.737,5.818,2.21s2.101,3.748,2.101,6.826v14.839h-9V42.318c0-1.467-0.271-2.504-0.813-3.113
	c-0.542-0.608-1.305-0.913-2.287-0.913c-1.085,0-1.964,0.411-2.639,1.232s-1.011,2.296-1.011,4.422v11.221h-8.938V31.823z"/>
<path d="M129.32,22.948v32.219h-8.372v-3.456c-1.17,1.469-2.238,2.461-3.203,2.975c-1.287,0.675-2.72,1.013-4.299,1.013
	c-3.173,0-5.597-1.209-7.271-3.628c-1.674-2.418-2.511-5.357-2.511-8.816c0-3.87,0.925-6.831,2.774-8.883
	c1.85-2.053,4.2-3.079,7.051-3.079c1.389,0,2.65,0.235,3.784,0.704c1.133,0.469,2.138,1.174,3.016,2.111V22.948H129.32z
	 M120.354,43.426c0-1.83-0.387-3.195-1.161-4.096s-1.752-1.351-2.935-1.351c-1.037,0-1.906,0.433-2.606,1.296
	c-0.701,0.863-1.051,2.312-1.051,4.348c0,1.904,0.361,3.299,1.084,4.184c0.723,0.887,1.617,1.329,2.683,1.329
	c1.139,0,2.088-0.446,2.847-1.339C119.975,46.903,120.354,45.446,120.354,43.426z"/>
<path d="M131.203,43.561c0-3.561,1.201-6.496,3.604-8.805s5.648-3.464,9.736-3.464c4.674,0,8.205,1.356,10.594,4.067
	c1.919,2.185,2.879,4.875,2.879,8.07c0,3.591-1.19,6.533-3.571,8.828c-2.381,2.293-5.674,3.44-9.879,3.44
	c-3.751,0-6.784-0.952-9.099-2.858C132.624,50.48,131.203,47.387,131.203,43.561z M140.172,43.547c0,2.084,0.42,3.625,1.262,4.623
	c0.841,0.998,1.898,1.497,3.171,1.497c1.287,0,2.345-0.491,3.171-1.476c0.826-0.982,1.24-2.561,1.24-4.732
	c0-2.025-0.417-3.533-1.251-4.524s-1.865-1.486-3.095-1.486c-1.302,0-2.377,0.503-3.226,1.509
	C140.596,39.962,140.172,41.492,140.172,43.547z"/>
<path d="M156.398,31.823h8.647l3.758,14.698l4.751-14.698h8.046l4.936,14.681l3.77-14.681h8.593l-8.59,23.344h-7.952l-4.724-14.046
	l-4.572,14.046h-8.001L156.398,31.823z"/>
<path d="M197.459,48.698l8.875-0.844c0.366,1.052,0.88,1.805,1.541,2.258c0.66,0.453,1.541,0.68,2.642,0.68
	c1.204,0,2.137-0.256,2.797-0.769c0.514-0.381,0.771-0.856,0.771-1.428c0-0.645-0.339-1.142-1.015-1.493
	c-0.484-0.249-1.768-0.557-3.846-0.923c-3.105-0.541-5.262-1.043-6.471-1.504c-1.207-0.461-2.226-1.24-3.053-2.339
	c-0.828-1.098-1.241-2.35-1.241-3.755c0-1.537,0.446-2.861,1.341-3.975c0.893-1.111,2.124-1.943,3.691-2.492
	c1.568-0.549,3.67-0.823,6.308-0.823c2.783,0,4.838,0.212,6.164,0.636c1.326,0.423,2.433,1.08,3.319,1.971
	c0.886,0.891,1.622,2.094,2.208,3.612l-8.469,0.844c-0.221-0.745-0.587-1.292-1.101-1.643c-0.705-0.468-1.557-0.701-2.555-0.701
	c-1.014,0-1.752,0.18-2.214,0.538c-0.462,0.359-0.693,0.795-0.693,1.307c0,0.571,0.292,1.004,0.877,1.296
	c0.584,0.293,1.857,0.557,3.819,0.791c2.973,0.337,5.185,0.806,6.635,1.405c1.449,0.602,2.559,1.459,3.328,2.572
	c0.769,1.113,1.153,2.336,1.153,3.67c0,1.348-0.407,2.658-1.22,3.934c-0.813,1.273-2.096,2.289-3.846,3.043
	c-1.752,0.754-4.136,1.132-7.154,1.132c-4.264,0-7.3-0.606-9.109-1.821C199.133,52.663,197.972,50.937,197.459,48.698z"/>
<path d="M99.554,9.696c0.371,0,0.733,0.095,1.087,0.286c0.354,0.19,0.629,0.463,0.827,0.818c0.197,0.355,0.296,0.725,0.296,1.11
	c0,0.381-0.097,0.748-0.292,1.1c-0.194,0.352-0.467,0.625-0.817,0.82c-0.351,0.195-0.718,0.292-1.101,0.292s-0.75-0.097-1.101-0.292
	c-0.351-0.194-0.624-0.468-0.819-0.82c-0.195-0.352-0.293-0.718-0.293-1.1c0-0.385,0.099-0.755,0.297-1.11
	c0.198-0.354,0.474-0.627,0.828-0.818C98.82,9.791,99.183,9.696,99.554,9.696z M99.554,10.063c-0.311,0-0.613,0.08-0.906,0.239
	c-0.294,0.16-0.524,0.387-0.69,0.684c-0.166,0.296-0.249,0.604-0.249,0.925c0,0.318,0.082,0.624,0.245,0.916
	c0.163,0.292,0.391,0.52,0.684,0.684c0.293,0.163,0.599,0.245,0.917,0.245s0.624-0.082,0.917-0.245
	c0.292-0.164,0.52-0.391,0.682-0.684c0.162-0.292,0.243-0.598,0.243-0.916c0-0.32-0.083-0.629-0.248-0.925
	c-0.165-0.296-0.395-0.524-0.689-0.684C100.164,10.143,99.862,10.063,99.554,10.063z M98.583,13.133V10.75h0.82
	c0.28,0,0.483,0.022,0.608,0.066c0.125,0.044,0.226,0.121,0.3,0.23c0.075,0.109,0.112,0.226,0.112,0.349
	c0,0.174-0.062,0.325-0.188,0.455c-0.125,0.129-0.291,0.201-0.498,0.217c0.084,0.035,0.151,0.078,0.203,0.126
	c0.096,0.094,0.213,0.251,0.352,0.473l0.291,0.467h-0.469l-0.211-0.376c-0.167-0.295-0.3-0.481-0.402-0.555
	c-0.071-0.055-0.173-0.082-0.309-0.081h-0.226v1.012H98.583z M98.966,11.793h0.469c0.225,0,0.377-0.033,0.459-0.1
	s0.123-0.155,0.123-0.264c0-0.07-0.02-0.133-0.059-0.189c-0.039-0.056-0.094-0.097-0.164-0.125s-0.2-0.041-0.388-0.041h-0.44V11.793
	z"/>
<path d="M222.555,29.029c0.371,0,0.732,0.095,1.086,0.286c0.354,0.19,0.63,0.463,0.827,0.818c0.197,0.355,0.296,0.725,0.296,1.111
	c0,0.381-0.098,0.748-0.291,1.1c-0.195,0.352-0.467,0.625-0.818,0.819c-0.351,0.194-0.717,0.292-1.1,0.292s-0.75-0.098-1.102-0.292
	c-0.35-0.194-0.623-0.468-0.818-0.819s-0.293-0.719-0.293-1.1c0-0.386,0.1-0.756,0.297-1.111c0.199-0.354,0.475-0.627,0.828-0.818
	C221.82,29.125,222.184,29.029,222.555,29.029z M222.555,29.396c-0.311,0-0.613,0.08-0.906,0.239
	c-0.295,0.16-0.524,0.387-0.69,0.684c-0.166,0.296-0.249,0.604-0.249,0.925c0,0.318,0.082,0.623,0.244,0.916
	c0.164,0.292,0.392,0.52,0.684,0.684c0.293,0.162,0.6,0.244,0.918,0.244s0.623-0.082,0.916-0.244
	c0.293-0.164,0.521-0.392,0.683-0.684c0.162-0.293,0.243-0.598,0.243-0.916c0-0.321-0.082-0.629-0.248-0.925
	c-0.164-0.296-0.395-0.524-0.689-0.684C223.164,29.476,222.863,29.396,222.555,29.396z M221.584,32.467v-2.383h0.82
	c0.279,0,0.482,0.022,0.607,0.066c0.126,0.044,0.227,0.121,0.301,0.23c0.074,0.109,0.111,0.226,0.111,0.349
	c0,0.174-0.062,0.326-0.188,0.455s-0.291,0.201-0.498,0.217c0.084,0.035,0.152,0.078,0.203,0.127
	c0.096,0.094,0.213,0.251,0.352,0.473l0.291,0.467h-0.469l-0.212-0.376c-0.167-0.296-0.3-0.481-0.401-0.556
	c-0.071-0.055-0.174-0.082-0.309-0.08h-0.227v1.012H221.584z M221.967,31.127h0.469c0.225,0,0.378-0.033,0.459-0.1
	c0.082-0.066,0.123-0.155,0.123-0.264c0-0.07-0.02-0.133-0.059-0.189c-0.039-0.056-0.094-0.097-0.164-0.125
	s-0.199-0.041-0.389-0.041h-0.439V31.127z"/>
<path d="M230.406,47.886l3.719-0.344c0.314,1.742,0.916,3.006,1.803,3.791s2.024,1.178,3.412,1.178c1.188,0,2.23-0.272,3.129-0.815
	c0.9-0.545,1.633-1.271,2.2-2.18c0.567-0.91,1.044-2.137,1.43-3.684c0.386-1.546,0.579-3.121,0.579-4.726
	c0-0.172-0.007-0.43-0.021-0.773c-0.773,1.231-1.83,2.231-3.168,2.997c-1.34,0.767-2.79,1.149-4.352,1.149
	c-2.606,0-4.812-0.944-6.617-2.835c-1.805-1.889-2.707-4.381-2.707-7.473c0-3.192,0.942-5.762,2.826-7.709
	c1.885-1.947,4.245-2.92,7.082-2.92c2.049,0,3.922,0.552,5.621,1.654c1.697,1.103,2.986,2.674,3.868,4.715
	c0.881,2.04,1.321,4.994,1.321,8.86c0,4.024-0.437,7.229-1.31,9.613c-0.874,2.384-2.173,4.199-3.898,5.445s-3.748,1.868-6.067,1.868
	c-2.463,0-4.475-0.683-6.035-2.05C231.66,52.282,230.722,50.361,230.406,47.886z M246.219,33.977c0-2.222-0.588-3.985-1.764-5.29
	c-1.177-1.305-2.601-1.957-4.271-1.957c-1.729,0-3.229,0.703-4.498,2.107c-1.27,1.405-1.904,3.226-1.904,5.462
	c0,2.008,0.603,3.639,1.808,4.893c1.205,1.255,2.7,1.882,4.487,1.882c1.789,0,3.261-0.627,4.414-1.882
	C245.643,37.938,246.219,36.199,246.219,33.977z"/>
<path d="M250.191,46.917l4.062-0.344c0.302,1.972,0.999,3.454,2.092,4.448c1.094,0.992,2.421,1.489,3.982,1.489
	c1.882,0,3.465-0.702,4.75-2.108c1.283-1.404,1.926-3.27,1.926-5.594c0-2.208-0.617-3.951-1.852-5.227
	c-1.236-1.277-2.867-1.915-4.894-1.915c-1.261,0-2.392,0.284-3.392,0.853c-1,0.567-1.788,1.305-2.363,2.21l-3.625-0.469
	l3.062-16.188h15.688v3.688h-12.6l-1.705,8.471c1.893-1.313,3.881-1.971,5.961-1.971c2.754,0,5.078,0.954,6.973,2.86
	c1.893,1.906,2.84,4.357,2.84,7.354c0,2.852-0.832,5.318-2.494,7.396c-2.022,2.552-4.783,3.827-8.281,3.827
	c-2.868,0-5.209-0.802-7.022-2.404S250.449,49.565,250.191,46.917z"/>
<rect style="&st0;" width="276" height="59"/>
</svg>
